<mxfile host="app.diagrams.net" agent="Mozilla/5.0 (Windows NT 10.0; Win64; x64) AppleWebKit/537.36 (KHTML, like Gecko) Chrome/138.0.0.0 Safari/537.36" version="27.2.0">
  <diagram name="Use Case Diagram - Sparepart System" id="usecase-diagram">
    <mxGraphModel dx="595" dy="347" grid="1" gridSize="10" guides="1" tooltips="1" connect="1" arrows="1" fold="1" page="1" pageScale="1" pageWidth="1200" pageHeight="800" math="0" shadow="0">
      <root>
        <mxCell id="0" />
        <mxCell id="1" parent="0" />
        <mxCell id="user-actor" value="Mekanik" style="shape=umlActor;verticalLabelPosition=bottom;verticalAlign=top;html=1;outlineConnect=0;fontSize=14;fontStyle=1;fontFamily=Times New Roman;" parent="1" vertex="1">
          <mxGeometry x="940" y="240" width="30" height="60" as="geometry" />
        </mxCell>
        <mxCell id="5Cgvbt8MnJOI0kQ3IPYv-1" style="edgeStyle=orthogonalEdgeStyle;rounded=0;orthogonalLoop=1;jettySize=auto;html=1;dashed=1;fontFamily=Times New Roman;" parent="1" source="login-usecase" target="register-usecase" edge="1">
          <mxGeometry relative="1" as="geometry" />
        </mxCell>
        <mxCell id="XXWr3rm9nFrcr4QYLjTA-1" value="&lt;font&gt;include&lt;/font&gt;" style="edgeLabel;html=1;align=center;verticalAlign=middle;resizable=0;points=[];fontFamily=Times New Roman;" vertex="1" connectable="0" parent="5Cgvbt8MnJOI0kQ3IPYv-1">
          <mxGeometry x="0.0729" y="3" relative="1" as="geometry">
            <mxPoint y="-3" as="offset" />
          </mxGeometry>
        </mxCell>
        <mxCell id="login-usecase" value="Masuk akun" style="ellipse;whiteSpace=wrap;html=1;fontSize=12;fontFamily=Times New Roman;" parent="1" vertex="1">
          <mxGeometry x="710" y="80" width="100" height="50" as="geometry" />
        </mxCell>
        <mxCell id="register-usecase" value="Melakukan pendaftaran" style="ellipse;whiteSpace=wrap;html=1;fontSize=12;fontFamily=Times New Roman;" parent="1" vertex="1">
          <mxGeometry x="495" y="80" width="100" height="50" as="geometry" />
        </mxCell>
        <mxCell id="select-brand-usecase" value="Memilih merek kendaraan" style="ellipse;whiteSpace=wrap;html=1;fontSize=12;fontFamily=Times New Roman;" parent="1" vertex="1">
          <mxGeometry x="485" y="160" width="120" height="50" as="geometry" />
        </mxCell>
        <mxCell id="select-problem-usecase" value="Memilih tipe gejala" style="ellipse;whiteSpace=wrap;html=1;fontSize=12;fontFamily=Times New Roman;" parent="1" vertex="1">
          <mxGeometry x="350" y="220" width="120" height="50" as="geometry" />
        </mxCell>
        <mxCell id="answer-questions-usecase" value="Menjawab pertanyaan diagnosa" style="ellipse;whiteSpace=wrap;html=1;fontSize=12;fontFamily=Times New Roman;" parent="1" vertex="1">
          <mxGeometry x="340" y="310" width="130" height="50" as="geometry" />
        </mxCell>
        <mxCell id="view-results-usecase" value="Melihat hasil diagnosa" style="ellipse;whiteSpace=wrap;html=1;fontSize=12;fontFamily=Times New Roman;" parent="1" vertex="1">
          <mxGeometry x="485" y="375" width="120" height="50" as="geometry" />
        </mxCell>
        <mxCell id="user-dashboard-usecase" value="Form diagnosa" style="ellipse;whiteSpace=wrap;html=1;fontSize=12;fontFamily=Times New Roman;" parent="1" vertex="1">
          <mxGeometry x="670" y="160" width="110" height="50" as="geometry" />
        </mxCell>
        <mxCell id="user-login-conn" value="" style="endArrow=none;html=1;rounded=0;fontFamily=Times New Roman;" parent="1" source="user-actor" target="login-usecase" edge="1">
          <mxGeometry width="50" height="50" relative="1" as="geometry">
            <mxPoint x="200" y="230" as="sourcePoint" />
            <mxPoint x="250" y="180" as="targetPoint" />
          </mxGeometry>
        </mxCell>
        <mxCell id="include-brand-problem" value="" style="endArrow=classic;html=1;rounded=0;fontFamily=Times New Roman;dashed=1;endFill=1;" parent="1" source="select-brand-usecase" target="select-problem-usecase" edge="1">
          <mxGeometry width="160" relative="1" as="geometry">
            <mxPoint x="470" y="245" as="sourcePoint" />
            <mxPoint x="500" y="245" as="targetPoint" />
          </mxGeometry>
        </mxCell>
        <mxCell id="XXWr3rm9nFrcr4QYLjTA-4" value="include" style="edgeLabel;html=1;align=center;verticalAlign=middle;resizable=0;points=[];fontFamily=Times New Roman;" vertex="1" connectable="0" parent="include-brand-problem">
          <mxGeometry x="-0.2214" relative="1" as="geometry">
            <mxPoint as="offset" />
          </mxGeometry>
        </mxCell>
        <mxCell id="include-problem-questions" value="" style="endArrow=classic;html=1;rounded=0;fontFamily=Times New Roman;endFill=1;dashed=1;" parent="1" source="select-problem-usecase" target="answer-questions-usecase" edge="1">
          <mxGeometry width="160" relative="1" as="geometry">
            <mxPoint x="620" y="245" as="sourcePoint" />
            <mxPoint x="650" y="245" as="targetPoint" />
          </mxGeometry>
        </mxCell>
        <mxCell id="XXWr3rm9nFrcr4QYLjTA-5" value="include" style="edgeLabel;html=1;align=center;verticalAlign=middle;resizable=0;points=[];fontFamily=Times New Roman;" vertex="1" connectable="0" parent="include-problem-questions">
          <mxGeometry x="-0.2304" y="-2" relative="1" as="geometry">
            <mxPoint as="offset" />
          </mxGeometry>
        </mxCell>
        <mxCell id="include-questions-results" value="" style="endArrow=classic;html=1;rounded=0;fontFamily=Times New Roman;dashed=1;endFill=1;" parent="1" source="answer-questions-usecase" target="view-results-usecase" edge="1">
          <mxGeometry width="160" relative="1" as="geometry">
            <mxPoint x="650" y="270" as="sourcePoint" />
            <mxPoint x="470" y="315" as="targetPoint" />
          </mxGeometry>
        </mxCell>
        <mxCell id="XXWr3rm9nFrcr4QYLjTA-6" value="include" style="edgeLabel;html=1;align=center;verticalAlign=middle;resizable=0;points=[];fontFamily=Times New Roman;" vertex="1" connectable="0" parent="include-questions-results">
          <mxGeometry x="-0.2762" relative="1" as="geometry">
            <mxPoint as="offset" />
          </mxGeometry>
        </mxCell>
        <mxCell id="lp1mp5wzWDGOeXpMDFiN-2" value="Sistem Pakar Rekomendasi &lt;i&gt;Sparepart &lt;/i&gt;Kendaraan Roda Dua" style="shape=umlFrame;whiteSpace=wrap;html=1;pointerEvents=0;width=390;height=30;fontFamily=Times New Roman;" parent="1" vertex="1">
          <mxGeometry x="300" y="40" width="560" height="420" as="geometry" />
        </mxCell>
        <mxCell id="5Cgvbt8MnJOI0kQ3IPYv-4" value="" style="endArrow=none;html=1;rounded=0;fontFamily=Times New Roman;" parent="1" source="user-actor" target="user-dashboard-usecase" edge="1">
          <mxGeometry width="50" height="50" relative="1" as="geometry">
            <mxPoint x="791" y="330" as="sourcePoint" />
            <mxPoint x="635" y="190" as="targetPoint" />
          </mxGeometry>
        </mxCell>
        <mxCell id="XXWr3rm9nFrcr4QYLjTA-2" style="edgeStyle=orthogonalEdgeStyle;rounded=0;orthogonalLoop=1;jettySize=auto;html=1;dashed=1;exitX=0;exitY=0.5;exitDx=0;exitDy=0;fontFamily=Times New Roman;" edge="1" parent="1" source="user-dashboard-usecase" target="select-brand-usecase">
          <mxGeometry relative="1" as="geometry">
            <mxPoint x="600" y="174.6" as="sourcePoint" />
            <mxPoint x="560" y="187" as="targetPoint" />
          </mxGeometry>
        </mxCell>
        <mxCell id="XXWr3rm9nFrcr4QYLjTA-3" value="&lt;font&gt;include&lt;/font&gt;" style="edgeLabel;html=1;align=center;verticalAlign=middle;resizable=0;points=[];fontFamily=Times New Roman;" vertex="1" connectable="0" parent="XXWr3rm9nFrcr4QYLjTA-2">
          <mxGeometry x="0.0729" y="3" relative="1" as="geometry">
            <mxPoint y="-3" as="offset" />
          </mxGeometry>
        </mxCell>
        <mxCell id="XXWr3rm9nFrcr4QYLjTA-7" value="Keluar akun" style="ellipse;whiteSpace=wrap;html=1;fontSize=12;fontFamily=Times New Roman;" vertex="1" parent="1">
          <mxGeometry x="670" y="280" width="110" height="50" as="geometry" />
        </mxCell>
        <mxCell id="XXWr3rm9nFrcr4QYLjTA-10" value="" style="endArrow=none;html=1;rounded=0;fontFamily=Times New Roman;entryX=1;entryY=0.5;entryDx=0;entryDy=0;" edge="1" parent="1" source="user-actor" target="XXWr3rm9nFrcr4QYLjTA-7">
          <mxGeometry width="50" height="50" relative="1" as="geometry">
            <mxPoint x="952" y="373" as="sourcePoint" />
            <mxPoint x="780" y="310" as="targetPoint" />
          </mxGeometry>
        </mxCell>
      </root>
    </mxGraphModel>
  </diagram>
</mxfile>
